<?xml version="1.0" standalone="no"?>
<!DOCTYPE svg PUBLIC "-//W3C//DTD SVG 20010904//EN"
 "http://www.w3.org/TR/2001/REC-SVG-20010904/DTD/svg10.dtd">
<svg version="1.0" xmlns="http://www.w3.org/2000/svg"
 width="1200.000000pt" height="1200.000000pt" viewBox="0 0 1200.000000 1200.000000"
 preserveAspectRatio="xMidYMid meet">
<metadata>
Created by potrace 1.16, written by Peter Selinger 2001-2019
</metadata>
<g transform="translate(0.000000,1200.000000) scale(0.100000,-0.100000)"
fill="#000000" stroke="none">
<path d="M5775 9928 c-222 -9 -400 -40 -613 -104 -443 -133 -820 -359 -1142
-683 -411 -412 -663 -919 -756 -1521 -29 -181 -26 -578 5 -770 176 -1111 991
-1981 2081 -2222 202 -44 339 -58 575 -58 287 0 496 29 764 106 595 173 1137
578 1485 1110 208 319 350 695 408 1081 26 177 31 547 9 698 -66 458 -193 806
-425 1160 -356 543 -881 927 -1519 1111 -260 75 -555 106 -872 92z m521 -127
c429 -64 824 -228 1174 -488 141 -105 406 -369 509 -506 255 -342 412 -707
488 -1133 26 -148 28 -178 28 -424 0 -246 -2 -276 -28 -424 -78 -442 -252
-833 -524 -1180 -84 -106 -344 -361 -460 -449 -296 -225 -672 -397 -1018 -466
-231 -46 -305 -54 -535 -54 -231 -1 -328 9 -547 53 -351 72 -710 236 -1008
459 -113 86 -357 319 -447 429 -224 272 -412 642 -498 976 -64 249 -75 345
-75 651 0 306 8 385 67 625 84 350 261 707 490 991 42 52 141 157 220 235 208
204 359 314 611 444 305 158 619 249 971 280 137 13 433 3 582 -19z"/>
<path d="M5670 8943 c-14 -3 -78 -18 -143 -34 -123 -31 -278 -57 -502 -84
-121 -15 -159 -25 -138 -38 5 -3 44 -19 86 -36 168 -67 283 -137 357 -217 57
-61 108 -141 115 -180 4 -17 -11 -110 -34 -219 -106 -507 -187 -1134 -221
-1712 -11 -196 -14 -779 -4 -842 6 -36 8 -38 38 -35 17 1 421 3 897 3 l866 1
6 48 c15 112 19 485 8 652 -43 630 -190 1127 -515 1740 -143 269 -176 335
-198 405 -63 192 -237 457 -347 527 -42 26 -51 28 -145 27 -56 -1 -112 -4
-126 -6z m-32 -85 c46 -46 -51 -96 -100 -51 -36 33 -14 63 47 63 23 0 46 -5
53 -12z m-323 -108 c109 -22 150 -39 97 -40 -38 0 -208 37 -231 50 -27 16 28
12 134 -10z m864 -186 c59 -68 85 -140 85 -246 1 -79 -1 -89 -24 -113 -21 -23
-31 -26 -63 -22 -21 3 -52 16 -70 30 -75 57 -244 80 -314 44 -42 -22 -36 -35
41 -96 81 -65 112 -99 129 -141 28 -67 152 -662 192 -922 15 -98 15 -115 1
-197 -9 -49 -41 -176 -72 -282 -31 -107 -67 -234 -80 -284 -34 -130 -57 -387
-52 -588 l3 -167 -377 0 -378 0 0 289 c0 668 79 1433 231 2231 23 118 45 219
49 224 5 4 72 3 149 -4 78 -6 174 -8 214 -4 66 6 75 10 107 44 19 20 55 74 79
121 46 89 77 129 97 129 7 0 31 -21 53 -46z"/>
<path d="M5598 8252 c-14 -2 -32 -9 -38 -17 -9 -11 -7 -15 13 -20 28 -7 87 6
88 20 1 13 -30 21 -63 17z"/>
<path d="M4820 3675 l0 -365 40 0 40 0 0 365 0 365 -40 0 -40 0 0 -365z"/>
<path d="M4260 3667 l0 -357 40 0 40 0 0 134 0 134 108 4 c121 5 167 21 219
82 65 73 63 203 -4 276 -48 54 -102 70 -265 77 l-138 6 0 -356z m271 273 c57
-16 92 -60 97 -123 6 -70 -16 -116 -67 -145 -32 -18 -55 -22 -130 -22 l-91 0
0 150 0 150 78 0 c42 0 93 -5 113 -10z"/>
<path d="M6040 3665 l0 -355 41 0 40 0 -3 279 c-2 154 0 278 3 276 3 -2 30
-37 61 -77 92 -121 351 -463 353 -465 1 -2 16 -6 33 -9 l32 -6 0 356 0 356
-35 0 -35 0 0 -275 c0 -151 -3 -275 -7 -275 -5 1 -29 29 -54 63 -173 231 -353
464 -367 475 -9 6 -26 12 -39 12 l-23 0 0 -355z"/>
<path d="M5159 3806 c-51 -13 -109 -51 -109 -70 0 -32 23 -35 71 -10 47 23
117 32 154 18 24 -10 45 -58 45 -107 l0 -44 -68 -6 c-143 -12 -232 -69 -232
-149 0 -131 148 -170 276 -73 l32 24 6 -33 c6 -33 21 -46 52 -46 12 0 14 30
14 173 0 94 -5 189 -11 210 -15 56 -61 103 -113 116 -54 13 -58 13 -117 -3z
m161 -325 c0 -57 -1 -59 -41 -87 -56 -38 -141 -41 -170 -5 -60 74 16 149 154
150 l57 1 0 -59z"/>
<path d="M5571 3581 c54 -126 99 -235 99 -243 0 -9 -18 -54 -40 -101 -22 -47
-40 -88 -40 -91 0 -3 13 -6 30 -6 20 0 34 7 44 23 16 24 276 627 276 639 0 5
-13 8 -30 8 -38 0 -44 -9 -125 -210 -37 -91 -69 -167 -71 -169 -2 -2 -6 5 -10
15 -27 79 -146 349 -156 356 -7 4 -27 8 -45 8 l-31 0 99 -229z"/>
<path d="M6760 3623 c0 -163 3 -194 19 -230 23 -49 79 -83 138 -83 45 0 110
28 137 59 26 28 36 27 36 -7 0 -34 16 -52 47 -52 l23 0 0 250 0 250 -40 0 -40
0 0 -190 0 -190 -42 -27 c-32 -22 -53 -28 -94 -28 -98 0 -113 37 -114 278 l0
157 -35 0 -35 0 0 -187z"/>
<path d="M7341 3694 c43 -64 79 -120 79 -126 0 -6 -36 -64 -80 -129 -44 -65
-80 -120 -80 -123 0 -11 56 -6 72 7 9 6 45 56 81 110 l66 97 43 -67 c24 -38
54 -85 67 -106 23 -37 51 -52 90 -45 19 3 12 16 -63 132 l-85 130 66 95 c37
53 72 103 80 112 21 25 16 30 -24 27 -36 -3 -42 -9 -102 -98 -35 -52 -66 -96
-70 -97 -3 -2 -34 42 -69 97 l-64 100 -43 0 -44 0 80 -116z"/>
</g>
</svg>
